# xmcd
#
# Track frame offsets: 
#        150
#        26893
#        47878
#        63235
#        87285
#        103162
#        128696
#        149627
#        165299
#        183474
#        202053
#        242204
#        273640
#        311037
#        332156
#
# Disc length: 4789 seconds
#
# Revision: 1
# Processed by: cddbd v1.5.2PL0 Copyright (c) Steve Scherf et al.
# Submitted via: ExactAudioCopy v0.99pb5
#
DISCID=e612b30f
DTITLE=MIGHTY FLYERS featuring Rod Piazza - Undercover
DYEAR=1988
DGENRE=Blues
TTITLE0=Undercover
TTITLE1=Come On Home
TTITLE2=F-R-E-S-N-O #99
TTITLE3=Last Train To Aalter
TTITLE4=Bad Guy
TTITLE5=Over And Over
TTITLE6=Paradox
TTITLE7=I Live The Life I Love
TTITLE8=What A Life
TTITLE9=She's In Disguise
TTITLE10=High Flyin' Baby
TTITLE11=Ain't That Just Like A Woman
TTITLE12=Hang Ten Boogie
TTITLE13=She Wants To Sell My Monkey
TTITLE14=Lucky Day
EXTD=
EXTT0=
EXTT1=
EXTT2=
EXTT3=
EXTT4=
EXTT5=
EXTT6=
EXTT7=
EXTT8=
EXTT9=
EXTT10=
EXTT11=
EXTT12=
EXTT13=
EXTT14=
PLAYORDER=
